<svg version="1.1" xmlns="http://www.w3.org/2000/svg" viewBox="0 0 750 750" class="QYCgpAJfeMCVB1x7xzz9 QubB07L3HSo1mvsypeLs xi3AllYKY8dOlOc5nm7K" aria-label="k4 logo" role="img">
  <g>
    <path fill="#ff497c" d="M29.1,177.8h68v141.7l106.6-141.7h85.2L139.5,374.8l151.3,198h-85.9L97,430.1v88.2H29.1V177.8z"/>
    <path fill="#ff497c" d="M455.3,428.6V178.1h-82L224.2,375.3l90.9,120.6l72.9-0.2v76.9h67.3v-76.7h20.4V463h15.7v-34.4H455.3z M388,428.6H266.8l121.2-160V428.6z"/>
    <rect x="490.3" y="478.4" fill="#a0ce4e" width="33.5" height="33.4"/>
    <path fill="#ffffff" d="M691.6,328.4h35v193.2h-35V328.4z"/>
    <path fill="#ffffff" d="M648.9,399.3c-12.7-13.7-28.2-20.6-46.4-20.6c-8.4,0-16.2,1.6-23.6,4.7c-7.3,3.2-14.2,7.9-20.5,14.2v-15.4h-34.7V463h15.1v63.2h-15.1v46.4h34.7v-65.7c6.8,6.5,13.7,11.2,20.6,14s14.4,4.3,22.4,4.3c18,0,33.6-7,46.8-20.9c13.1-14,19.7-31.3,19.7-52.1C668,430.7,661.6,413,648.9,399.3z M622.2,481.5c-7.3,7.8-16.3,11.7-27,11.7c-11,0-20.2-3.8-27.4-11.5c-7.3-7.6-10.9-17.7-10.9-30c0-12.1,3.6-21.9,10.9-29.5c7.3-7.5,16.4-11.3,27.4-11.3c10.9,0,20,3.8,27.2,11.5c7.2,7.6,10.8,17.4,10.8,29.4C633.1,463.8,629.5,473.8,622.2,481.5z"/>
  </g>
</svg>
